<svg width="24" height="24" viewBox="0 0 24 24" fill="none" xmlns="http://www.w3.org/2000/svg">
<path fill-rule="evenodd" clip-rule="evenodd" d="M0.0833285 2.07442C0.0833285 1.54633 0.293112 1.03987 0.666528 0.666454C1.03994 0.293038 1.5464 0.0832546 2.0745 0.0832546H21.9233C22.185 0.0828272 22.4443 0.134023 22.6861 0.23391C22.928 0.333798 23.1479 0.480415 23.333 0.665369C23.5182 0.850322 23.665 1.06998 23.7652 1.31177C23.8653 1.55355 23.9168 1.81271 23.9167 2.07442V21.9233C23.9169 22.185 23.8656 22.4443 23.7656 22.6862C23.6656 22.9281 23.5189 23.1479 23.3338 23.333C23.1488 23.5181 22.9291 23.665 22.6872 23.7651C22.4454 23.8653 22.1862 23.9167 21.9244 23.9166H2.0745C1.81292 23.9166 1.55391 23.865 1.31226 23.7649C1.07061 23.6648 0.851056 23.518 0.666145 23.333C0.481233 23.148 0.334588 22.9284 0.234586 22.6867C0.134584 22.445 0.0831862 22.1859 0.0833285 21.9243V2.07442ZM9.51699 9.17025H12.7442V10.7909C13.2101 9.85925 14.4017 9.02075 16.1925 9.02075C19.6256 9.02075 20.4392 10.8765 20.4392 14.2814V20.5886H16.9649V15.0571C16.9649 13.1179 16.4991 12.0238 15.3161 12.0238C13.6748 12.0238 12.9923 13.2035 12.9923 15.0571V20.5886H9.51699V9.17025ZM3.55866 20.4402H7.03399V9.02075H3.55866V20.4391V20.4402ZM7.53124 5.29625C7.5378 5.59382 7.48485 5.88969 7.3755 6.16651C7.26616 6.44333 7.10263 6.69553 6.8945 6.90829C6.68637 7.12105 6.43783 7.2901 6.16349 7.40551C5.88914 7.52092 5.5945 7.58037 5.29687 7.58037C4.99924 7.58037 4.7046 7.52092 4.43025 7.40551C4.15591 7.2901 3.90737 7.12105 3.69924 6.90829C3.49111 6.69553 3.32758 6.44333 3.21824 6.16651C3.10889 5.88969 3.05594 5.59382 3.06249 5.29625C3.07536 4.71218 3.31641 4.15636 3.73404 3.74783C4.15166 3.3393 4.71265 3.11054 5.29687 3.11054C5.88109 3.11054 6.44208 3.3393 6.8597 3.74783C7.27733 4.15636 7.51838 4.71218 7.53124 5.29625V5.29625Z" fill="white"/>
</svg>
