<svg width="25" height="21" viewBox="0 0 25 21" fill="none" xmlns="http://www.w3.org/2000/svg">
<path d="M24.6132 3.3483C23.7087 3.74913 22.7369 4.01996 21.7153 4.14238C22.7694 3.51166 23.558 2.51897 23.934 1.34955C22.9437 1.93779 21.8598 2.35184 20.7295 2.57371C19.9694 1.76215 18.9626 1.22423 17.8655 1.04348C16.7684 0.86272 15.6423 1.04924 14.662 1.57407C13.6817 2.0989 12.9022 2.93269 12.4443 3.94598C11.9865 4.95926 11.876 6.09536 12.13 7.17788C10.1233 7.07713 8.16026 6.55556 6.3682 5.64703C4.57615 4.7385 2.99515 3.4633 1.72783 1.90421C1.29449 2.65171 1.04533 3.51838 1.04533 4.44138C1.04484 5.27229 1.24946 6.09048 1.64103 6.82334C2.03259 7.5562 2.599 8.18109 3.28999 8.64255C2.48862 8.61705 1.70494 8.40051 1.00416 8.01096V8.07596C1.00408 9.24135 1.40719 10.3709 2.14511 11.2729C2.88302 12.1749 3.91028 12.7938 5.05258 13.0246C4.30917 13.2258 3.52977 13.2555 2.77324 13.1113C3.09553 14.114 3.72332 14.9909 4.56872 15.6191C5.41413 16.2474 6.43482 16.5955 7.48791 16.6148C5.70023 18.0182 3.49245 18.7794 1.21974 18.776C0.817155 18.7762 0.414908 18.7526 0.0150757 18.7056C2.32201 20.1889 5.00744 20.9761 7.75007 20.973C17.0342 20.973 22.1097 13.2835 22.1097 6.61455C22.1097 6.39788 22.1042 6.17905 22.0945 5.96238C23.0817 5.24844 23.9339 4.36435 24.6111 3.35155L24.6132 3.3483V3.3483Z" fill="white"/>
</svg>
