<svg width="128" height="38" viewBox="0 0 128 38" fill="none" xmlns="http://www.w3.org/2000/svg">
<path d="M48.848 26.192C48.0053 26.192 47.232 26.0427 46.528 25.744C45.824 25.4347 45.2107 25.008 44.688 24.464C44.176 23.9093 43.776 23.2587 43.488 22.512C43.2 21.7653 43.056 20.944 43.056 20.048C43.056 19.152 43.2 18.3307 43.488 17.584C43.776 16.8373 44.176 16.1867 44.688 15.632C45.2107 15.0773 45.824 14.6507 46.528 14.352C47.232 14.0427 48.0053 13.888 48.848 13.888C49.6587 13.888 50.384 14.032 51.024 14.32C51.6747 14.608 52.2187 14.9813 52.656 15.44C53.104 15.888 53.424 16.3627 53.616 16.864L52.416 17.392C52.1173 16.6987 51.6587 16.144 51.04 15.728C50.432 15.3013 49.7013 15.088 48.848 15.088C47.9733 15.088 47.1947 15.296 46.512 15.712C45.8293 16.128 45.296 16.7093 44.912 17.456C44.528 18.192 44.336 19.056 44.336 20.048C44.336 21.0293 44.528 21.8933 44.912 22.64C45.296 23.3867 45.8293 23.968 46.512 24.384C47.1947 24.7893 47.9733 24.992 48.848 24.992C49.7013 24.992 50.432 24.784 51.04 24.368C51.6587 23.952 52.1173 23.3973 52.416 22.704L53.616 23.232C53.424 23.7227 53.104 24.1973 52.656 24.656C52.2187 25.104 51.6747 25.472 51.024 25.76C50.384 26.048 49.6587 26.192 48.848 26.192ZM59.5918 26.192C58.7811 26.192 58.0451 26 57.3838 25.616C56.7224 25.2213 56.1944 24.688 55.7998 24.016C55.4158 23.3333 55.2238 22.56 55.2238 21.696C55.2238 20.8427 55.4158 20.08 55.7998 19.408C56.1838 18.736 56.7011 18.208 57.3518 17.824C58.0131 17.4293 58.7598 17.232 59.5918 17.232C60.4238 17.232 61.1651 17.424 61.8158 17.808C62.4771 18.192 62.9944 18.72 63.3678 19.392C63.7518 20.064 63.9438 20.832 63.9438 21.696C63.9438 22.5707 63.7464 23.3493 63.3518 24.032C62.9571 24.704 62.4291 25.232 61.7678 25.616C61.1171 26 60.3918 26.192 59.5918 26.192ZM59.5918 24.992C60.1678 24.992 60.6851 24.848 61.1438 24.56C61.6131 24.272 61.9811 23.8773 62.2478 23.376C62.5251 22.8747 62.6638 22.3147 62.6638 21.696C62.6638 21.0773 62.5251 20.5227 62.2478 20.032C61.9811 19.5413 61.6131 19.152 61.1438 18.864C60.6851 18.576 60.1678 18.432 59.5918 18.432C59.0158 18.432 58.4931 18.576 58.0238 18.864C57.5651 19.152 57.1971 19.5413 56.9198 20.032C56.6424 20.5227 56.5038 21.0773 56.5038 21.696C56.5038 22.3147 56.6424 22.8747 56.9198 23.376C57.1971 23.8773 57.5651 24.272 58.0238 24.56C58.4931 24.848 59.0158 24.992 59.5918 24.992ZM66.0601 29.2V17.424H67.2601V19.344L67.0681 19.008C67.4095 18.464 67.8628 18.032 68.4281 17.712C69.0041 17.392 69.6601 17.232 70.3961 17.232C71.2068 17.232 71.9268 17.4293 72.5561 17.824C73.1961 18.208 73.6975 18.736 74.0601 19.408C74.4335 20.08 74.6201 20.848 74.6201 21.712C74.6201 22.5653 74.4335 23.3333 74.0601 24.016C73.6975 24.688 73.1961 25.2213 72.5561 25.616C71.9268 26 71.2068 26.192 70.3961 26.192C69.6601 26.192 68.9935 26.0267 68.3961 25.696C67.8095 25.3547 67.3668 24.8747 67.0681 24.256L67.2601 24.08V29.2H66.0601ZM70.3321 24.992C70.9081 24.992 71.4201 24.848 71.8681 24.56C72.3268 24.272 72.6841 23.8827 72.9401 23.392C73.2068 22.8907 73.3401 22.3307 73.3401 21.712C73.3401 21.0827 73.2068 20.5227 72.9401 20.032C72.6841 19.5413 72.3268 19.152 71.8681 18.864C71.4201 18.576 70.9081 18.432 70.3321 18.432C69.7561 18.432 69.2335 18.576 68.7641 18.864C68.3055 19.152 67.9375 19.5467 67.6601 20.048C67.3935 20.5387 67.2601 21.0933 67.2601 21.712C67.2601 22.3307 67.3935 22.8907 67.6601 23.392C67.9375 23.8827 68.3055 24.272 68.7641 24.56C69.2335 24.848 69.7561 24.992 70.3321 24.992ZM76.7518 29.52C76.5811 29.52 76.4051 29.504 76.2238 29.472C76.0531 29.4507 75.8824 29.408 75.7118 29.344V28.224C75.8184 28.2347 75.9518 28.2507 76.1118 28.272C76.2824 28.304 76.4531 28.32 76.6238 28.32C77.1464 28.32 77.5464 28.208 77.8238 27.984C78.1011 27.7707 78.3731 27.3547 78.6398 26.736L79.1838 25.456L79.1518 26.512L75.5198 17.424H76.8158L79.7918 24.928H79.4557L82.4158 17.424H83.7438L79.8238 27.088C79.6531 27.504 79.4344 27.8987 79.1678 28.272C78.9118 28.6453 78.5864 28.944 78.1918 29.168C77.7971 29.4027 77.3171 29.52 76.7518 29.52ZM87.8726 26V13.888H89.0726V26H87.8726ZM91.5289 26V17.424H92.7289V26H91.5289ZM91.5289 15.84V14.08H92.7289V15.84H91.5289ZM95.1851 26V17.424H96.3851V19.088L96.1131 19.024C96.3265 18.4693 96.6731 18.032 97.1531 17.712C97.6438 17.392 98.2091 17.232 98.8491 17.232C99.4571 17.232 100.001 17.3707 100.481 17.648C100.972 17.9253 101.356 18.3093 101.633 18.8C101.921 19.28 102.065 19.824 102.065 20.432V26H100.865V20.896C100.865 20.3733 100.769 19.9307 100.577 19.568C100.396 19.2053 100.134 18.928 99.7931 18.736C99.4625 18.5333 99.0785 18.432 98.6411 18.432C98.2038 18.432 97.8145 18.5333 97.4731 18.736C97.1318 18.928 96.8651 19.2107 96.6731 19.584C96.4811 19.9467 96.3851 20.384 96.3851 20.896V26H95.1851ZM104.357 26V13.888H105.557V22.368L105.045 22.288L109.861 17.424H111.413L108.053 20.864L111.717 26H110.277L106.837 21.248L107.605 21.312L105.157 23.84L105.557 22.848V26H104.357Z" fill="white"/>
<path d="M26.158 17.8421C25.5437 17.228 24.7106 16.8831 23.842 16.8831C22.9734 16.8831 22.1403 17.228 21.526 17.8421L19.2093 20.1581C18.5949 20.7724 18.2498 21.6057 18.2498 22.4745C18.2498 23.3433 18.5949 24.1765 19.2093 24.7908C19.8236 25.4052 20.6568 25.7503 21.5256 25.7503C22.3944 25.7503 23.2277 25.4052 23.842 24.7908L25 23.6328" stroke="white" stroke-width="1.5" stroke-linecap="round" stroke-linejoin="round"/>
<path d="M23.842 20.158C24.4563 20.7721 25.2894 21.117 26.158 21.117C27.0266 21.117 27.8597 20.7721 28.474 20.158L30.7908 17.842C31.4051 17.2276 31.7502 16.3944 31.7502 15.5256C31.7502 14.6568 31.4051 13.8236 30.7908 13.2092C30.1764 12.5949 29.3432 12.2498 28.4744 12.2498C27.6056 12.2498 26.7724 12.5949 26.158 13.2092L25 14.3672" stroke="white" stroke-width="1.5" stroke-linecap="round" stroke-linejoin="round"/>
<rect x="0.5" y="0.5" width="127" height="37" rx="18.5" stroke="white" stroke-opacity="0.8"/>
</svg>
