<svg width="99" height="87" viewBox="0 0 99 87" fill="none" xmlns="http://www.w3.org/2000/svg">
<path fill-rule="evenodd" clip-rule="evenodd" d="M30.7241 6.34066L16.6422 34.7151C15.3892 37.0515 12.1735 37.4396 10.3916 35.4694L4.26724 27.0692V38.9139C4.26724 40.0821 3.31199 41.0291 2.13362 41.0291C0.955254 41.0291 0 40.0821 0 38.9139L0.762498 23.1222C0.762498 22.2457 1.30784 21.46 2.13362 21.1467C2.95941 20.8335 3.89452 21.0576 4.48475 21.7103L12.7783 31.4403L29.3984 1.57301C30.7525 -0.951969 34.5728 -0.295974 34.9914 2.53338L37.4799 29.8908L70.5511 9.20502C71.3107 8.72988 72.2892 8.77723 72.9985 9.32345C73.7078 9.86967 73.9962 10.7978 73.7197 11.645L65.8869 35.6458L95.9217 20.9422C96.8064 20.5091 97.8754 20.7339 98.5065 21.4859C99.1377 22.2379 99.1663 23.3208 98.5757 24.1046L75.5509 54.6614L95.1271 50.3853C96.0837 50.1763 97.0609 50.64 97.4969 51.5096C97.9328 52.3792 97.7155 53.4313 96.9698 54.061L75.1925 71.981C74.7211 72.3689 74.7541 73.1003 75.2585 73.4443L82.5471 78.4144C83.0351 78.874 83.2757 79.5349 83.1963 80.1974C83.1169 80.86 82.7268 81.4466 82.1438 81.78L71.7613 86.7166C70.7406 87.3004 69.4358 86.9533 68.8469 85.9415C68.2581 84.9296 69.3888 84.3391 70.4095 83.7554L77.537 79.531L71.7613 74.0915C70.475 72.8801 70.5311 70.8309 71.8816 69.6904L91.319 53.7202L72.6058 59.2116C69.1307 59.9707 67.4265 56.8873 69.556 54.061L89.8301 28.6424L63.4793 41.2116C61.111 42.3711 58.5016 40.1363 59.3147 37.645L67.8464 15.8988L39.2023 33.8154C36.8532 35.2848 33.7561 33.8724 33.3531 31.148L30.7241 6.34066Z" fill="#FFCA0E"/>
</svg>
