<svg width="199" height="48" viewBox="0 0 199 48" fill="none" xmlns="http://www.w3.org/2000/svg">
<path fill-rule="evenodd" clip-rule="evenodd" d="M19.4632 0.119256C15.427 0.707349 11.9498 2.45922 8.86572 5.45827C8.18772 6.11771 7.23894 7.16988 6.75749 7.79636C6.27604 8.42295 5.43943 9.47736 4.89822 10.1396C2.48991 13.0871 1.07824 15.9817 0.335351 19.4961C-0.0257667 21.2038 -0.110388 24.6207 0.155839 26.7376C1.2148 35.157 6.03409 42.3763 12.9434 45.8934C14.1066 46.4854 15.9555 47.194 16.3375 47.194C16.4607 47.194 16.5641 47.1276 16.5673 47.0463C16.5706 46.9652 16.568 43.5696 16.5618 39.5007L16.5506 32.1027L17.3235 31.7368C18.4188 31.2181 19.4768 30.127 19.8014 29.1815C20.0833 28.3599 20.1491 28.6683 19.8842 29.5708C19.5791 30.6106 18.2831 31.8118 17.0158 32.2294C16.9127 32.2633 16.7927 32.4685 16.7491 32.6852C16.6505 33.1775 16.7432 45.4115 16.8476 45.6714C16.8929 45.784 17.3369 45.9885 17.9392 46.1741C20.0762 46.8323 22.5791 46.9998 25.1619 46.6572C27.4456 46.3542 29.9079 45.6593 30.1348 45.2537C30.2336 45.077 30.2836 43.1751 30.3143 38.424C30.3567 31.84 30.3568 31.8391 30.1163 31.8391C29.9841 31.8391 29.5858 31.7292 29.2313 31.595C26.6717 30.6258 25.1098 28.0276 24.9167 24.4176L24.8556 23.2758L25.0156 24.516C25.2387 26.2448 25.3841 26.7825 25.9586 28.0003C26.7948 29.7732 28.2302 30.993 29.9341 31.3789C30.4829 31.5032 30.6036 31.4987 30.7521 31.3485C31.0372 31.0599 30.8279 30.8058 30.1792 30.6532C28.158 30.1777 26.6557 28.5003 26.0053 25.9924C25.8101 25.2402 25.7597 24.6917 25.7582 23.3039C25.7565 21.8991 25.723 21.5414 25.5858 21.4636C25.2215 21.2574 26.0837 18.7024 26.9699 17.3615C27.9 15.9541 28.9741 15.1747 30.2662 14.9697C33.7965 14.4095 36.7196 18.8349 36.4873 24.3883C36.4164 26.0829 36.225 26.9281 35.6351 28.1507C34.9273 29.6178 33.4748 30.8326 32.1358 31.0772C31.883 31.1234 31.6106 31.2139 31.5303 31.2784C31.3056 31.4587 31.3317 40.4189 31.5657 43.4734C31.6902 45.0985 31.7963 45.8865 31.9056 45.9984C32.2346 46.3353 35.5967 44.5539 37.7957 42.8774C43.6755 38.3951 46.6926 31.7628 46.2031 24.3957C45.9377 20.4003 45.1535 17.5959 43.1679 13.5406C41.5126 10.1603 40.5002 8.69934 38.3155 6.5382C35.0285 3.28697 30.3739 1.00606 25.4532 0.235363C23.8101 -0.0220093 20.8289 -0.0797676 19.4632 0.119256ZM25.0991 0.95964C26.6945 1.18489 28.6623 1.68829 30.187 2.26138C31.6426 2.80837 31.8758 3.01413 30.5112 2.54734C28.7159 1.93326 27.2414 1.6955 24.8317 1.6316C22.4415 1.56817 21.0596 1.68498 18.8064 2.14091C15.5283 2.80436 12.19 4.20201 9.44195 6.06172L9.15016 6.25921L9.38359 5.98329C9.84718 5.43548 11.91 3.84353 12.9694 3.2161C15.0933 1.95818 17.3635 1.15677 19.6545 0.85629C20.6276 0.728608 23.9027 0.790855 25.0991 0.95964ZM31.151 3.57482C35.3789 5.17149 39.1155 8.31429 41.6369 12.3943C43.4404 15.3127 44.221 19.4838 43.828 24.1026C43.7146 25.4364 43.5967 25.347 43.4857 23.8426C43.3832 22.4534 42.897 20.1458 42.3542 18.4731C40.1008 11.5287 35.5062 5.82431 30.2173 3.40462C29.1482 2.9155 29.6453 3.0061 31.151 3.57482ZM16.1531 3.7729C10.0605 6.31213 5.56595 11.5216 3.95341 17.9132C3.1797 20.9796 3.18297 25.3224 3.96169 28.9427C4.76376 32.6715 6.32075 36.2287 8.4606 39.2212C8.75613 39.6345 8.48441 39.4022 7.55501 38.4466C2.42841 33.1764 0.73113 25.9389 2.73478 17.8923C3.34602 15.4375 4.44933 12.7446 5.70717 10.6372C6.43921 9.41074 7.86734 8.0744 9.9297 6.68596C11.9256 5.34229 13.801 4.42123 16.3865 3.51482C17.1788 3.23713 17.0216 3.41088 16.1531 3.7729ZM32.3812 14.0678C34.4409 14.6072 36.2082 16.7114 37.0454 19.6215C38.4499 24.5033 37.3904 29.3721 34.5139 31.2535C34.1445 31.4951 33.4917 31.7889 33.0634 31.9063L32.2845 32.1196L32.3568 37.0877C32.4263 41.8623 32.5411 43.8053 32.7672 44.0341C33.0698 44.3403 36.6405 41.9685 38.292 40.3642C40.866 37.8641 42.2968 35.2304 43.0602 31.5878C43.2014 30.914 43.4925 29.6717 43.7069 28.8271C44.4526 25.8915 44.7523 23.4288 44.6698 20.9177C44.6429 20.1019 44.6561 19.5015 44.6992 19.5834C44.7423 19.6653 44.8878 20.317 45.0227 21.0316C45.7842 25.0678 45.6253 28.9319 44.5624 32.2287C42.9055 37.3678 38.8726 41.9293 33.6471 44.5744L32.4667 45.172L32.3975 44.4999C32.2013 42.5915 32.0761 38.7104 32.1076 35.517L32.1431 31.9308L32.8636 31.667C34.4762 31.0761 35.5318 30.0736 36.3427 28.3627C37.4174 26.095 37.5901 23.4161 36.8529 20.441C35.8454 16.3744 33.3735 13.9188 30.5305 14.16C29.6493 14.2348 29.5674 14.188 30.2825 14.0184C30.9832 13.8523 31.6149 13.8672 32.3812 14.0678ZM12.6684 20.3049C12.6832 25.6195 12.7065 26.3238 12.8754 26.5845C13.0616 26.8722 13.4496 26.9664 13.7137 26.7879C14.1076 26.5217 14.1456 26.1122 14.3167 20.2683C14.4109 17.0502 14.5344 14.3666 14.5911 14.3049C14.6561 14.2342 14.736 14.2351 14.8077 14.3077C14.8761 14.3769 14.9518 16.725 14.9981 20.2075C15.0815 26.4891 15.1096 26.7601 15.6776 26.7601C15.8664 26.7601 16.0441 26.6497 16.1714 26.4532C16.349 26.1787 16.3775 25.5339 16.4404 20.3407C16.4791 17.1477 16.552 14.4679 16.6025 14.3857C16.7529 14.141 16.8943 14.3309 16.9581 14.8628C16.991 15.1374 17.0469 16.6377 17.0825 18.1968C17.2649 26.1963 17.3014 26.6469 17.7821 26.8336C18.0928 26.9543 18.5 26.7784 18.6425 26.4621C18.7411 26.2429 18.7792 24.5019 18.7792 20.1992C18.7792 15.1054 18.8035 14.24 18.9464 14.24C19.0384 14.24 19.1565 14.3595 19.209 14.5057C19.2614 14.652 19.2912 17.8805 19.275 21.6804L19.2457 28.5893L18.9475 29.2061C18.7835 29.5452 18.4093 30.0365 18.116 30.2978C17.5889 30.7673 16.5003 31.3666 16.1746 31.3666C15.723 31.3666 15.7174 31.4696 15.7611 38.9832C15.789 43.7876 15.7638 46.2487 15.6865 46.2481C15.4233 46.2459 12.9358 45.0815 12.0397 44.541C8.28973 42.2795 5.38749 39.0183 3.31077 34.7329C1.53063 31.0595 0.763111 27.7417 0.755758 23.6892C0.749572 20.2681 1.1785 18.2624 2.60932 15.0226C3.01618 14.1013 3.10162 14.2356 2.73525 15.2206C1.54277 18.4268 0.898265 23.4288 1.26358 26.642C1.84809 31.7828 3.83518 35.8854 7.47459 39.4651C8.80492 40.7736 9.50415 41.3379 11.251 42.5123C11.893 42.9439 12.8836 43.6157 13.4524 44.0052C14.0213 44.3948 14.5334 44.7136 14.5904 44.7136C14.6495 44.7136 14.6941 42.0482 14.6941 38.5089C14.6941 32.7043 14.6809 32.2997 14.4899 32.2361C13.4706 31.8964 12.2589 30.9955 11.8946 30.3068C11.8166 30.1591 12.0356 30.324 12.3814 30.673C13.0739 31.372 14.1279 31.9572 14.6945 31.9572C15.0213 31.9572 15.056 31.9241 15.0228 31.6435C14.994 31.3978 14.8866 31.2952 14.5277 31.1701C13.2748 30.7332 12.3876 29.8069 12.1063 28.6421C11.9835 28.1336 11.8987 27.9928 11.6978 27.9638C11.4667 27.9305 11.4491 27.8731 11.4974 27.3142C11.5266 26.977 11.7086 23.9417 11.9018 20.5693C12.095 17.1967 12.2819 14.3901 12.3171 14.3325C12.3524 14.2747 12.4421 14.2481 12.5165 14.2732C12.6163 14.307 12.6561 15.8869 12.6684 20.3049ZM28.9334 46.3886C26.4487 47.0719 25.0572 47.2428 22.1639 47.22C20.7196 47.2085 19.3015 47.1846 19.0126 47.167C18.5257 47.1373 18.4874 47.1558 18.4874 47.4217C18.4874 47.8521 18.8829 47.9231 21.6387 47.9868C24.4507 48.0516 26.0874 47.8868 28.4485 47.3009C30.3586 46.8269 30.4507 46.7874 30.4507 46.4418C30.4507 46.2847 30.3851 46.1327 30.3048 46.1039C30.2246 46.0751 29.6074 46.2032 28.9334 46.3886Z" fill="white"/>
<path d="M77.3187 12.2158V12.6752C82.0742 12.6752 79.7732 18.4015 79.3436 19.8713L76.1528 28.6292L71.4587 15.768C71.428 15.6455 70.3235 12.6752 73.0848 12.6752V12.2158H64.0647V12.6752C64.9544 12.6752 66.0282 12.767 66.918 15.0943L68.6054 19.657L65.5066 28.5067L60.6591 15.768C60.5977 15.6455 59.5546 12.6752 62.2545 12.6752V12.2158H53.2344V12.6752C54.1548 12.6752 55.1979 12.767 56.1184 15.0943L63.6044 33.7737H64.0647L68.8508 20.3307L74.1586 33.7737H74.6188L79.8038 19.9938C82.4731 13.4101 83.9151 12.6752 85.7559 12.6752V12.2158H77.3187Z" fill="white" fill-opacity="0.8"/>
<path d="M93.3069 26.7C93.3069 32.2426 92.2638 33.59 89.9627 33.59C87.6924 33.59 86.6185 32.2426 86.6185 26.7C86.6185 21.1574 87.6924 19.8101 89.9627 19.8101C92.2638 19.8101 93.3069 21.1574 93.3069 26.7ZM97.1727 26.7C97.1727 22.6579 94.6569 19.3508 89.9627 19.3508C85.2993 19.3508 82.7835 22.6579 82.7835 26.7C82.7835 30.7115 85.2993 34.0493 89.9627 34.0493C94.6569 34.0493 97.1727 30.7115 97.1727 26.7Z" fill="white" fill-opacity="0.8"/>
<path d="M113.456 19.6263V20.0551C116.708 20.0551 115.174 24.189 115.174 24.189L113.241 29.5479L109.897 22.0149C109.897 22.0149 108.823 20.0551 110.787 20.0551V19.6263H104.191V20.0551C104.682 20.0857 105.418 20.1469 106.093 21.5249C106.093 21.5249 106.216 21.7699 107.167 23.8522L105.08 29.5479L101.706 21.9842C101.706 21.9842 100.724 20.0551 102.503 20.0551V19.6263H95.9376V20.0551C96.4285 20.0857 97.2262 20.1469 97.9011 21.5249C97.9011 21.5249 98.3 22.2905 103.516 34.0493H103.945L107.412 24.4646L111.707 34.0493H112.106L115.665 24.3421C117.138 20.1775 118.519 20.0551 119.194 20.0551V19.6263H113.456Z" fill="white" fill-opacity="0.8"/>
<path d="M142.116 12.2158V12.6752C146.872 12.6752 144.571 18.4015 144.141 19.8713L140.95 28.6292L136.256 15.768C136.225 15.6455 135.121 12.6752 137.882 12.6752V12.2158H128.862V12.6752C129.752 12.6752 130.826 12.767 131.715 15.0943L133.403 19.657L130.304 28.5067L125.456 15.768C125.395 15.6455 124.352 12.6752 127.052 12.6752V12.2158H118.032V12.6752C118.952 12.6752 119.995 12.767 120.916 15.0943L128.402 33.7737H128.862L133.648 20.3307L138.956 33.7737H139.416L144.601 19.9938C147.27 13.4101 148.712 12.6752 150.553 12.6752V12.2158H142.116Z" fill="white" fill-opacity="0.8"/>
<path d="M157.113 19.4732C156.131 19.7182 154.628 20.3613 153.247 22.6579V19.3508L148.43 20.3919V20.8512C149.688 21.3106 149.964 21.7699 149.964 22.811V30.4665C149.964 32.0589 149.903 32.9469 148.737 33.3144V33.7737H154.505V33.3144C153.401 33.0082 153.247 32.1814 153.247 30.4665V23.4541C154.29 21.5249 155.947 21.0043 155.886 21.433C155.855 21.8924 156.039 22.3823 156.407 22.7804C157.236 23.546 158.463 23.5153 159.23 22.7498C159.997 21.9842 159.997 20.7287 159.23 19.9632C158.678 19.4426 157.727 19.3201 157.113 19.4732Z" fill="white" fill-opacity="0.8"/>
<path d="M166.748 26.3938C166.748 26.3938 166.748 30.6809 166.748 30.7421C166.472 31.4771 165.736 32.4264 164.416 32.4264C162.483 32.4264 162.207 30.6503 162.207 30.2216C162.207 28.5067 163.465 27.1287 166.748 26.3938ZM172.363 31.7527C172.179 32.3957 171.504 32.3957 171.504 32.3957C170.062 32.3957 170.062 30.3747 170.062 30.3747V25.4752C170.062 21.8618 169.08 19.3508 165.398 19.3508C165.398 19.3508 163.833 19.2589 162.483 19.9632C160.827 20.8512 160.367 21.7086 160.09 22.1986C159.814 22.6886 159.845 23.3622 160.213 23.8828C160.704 24.5871 161.716 24.7402 162.422 24.2503C163.128 23.7297 163.312 22.7498 162.79 22.0455C162.514 21.678 162.177 21.4943 161.747 21.433C161.563 21.4024 161.716 20.8512 162.79 20.3C165.091 19.1976 166.748 20.8819 166.748 24.0359V25.8732C161.44 27.2206 158.863 27.7106 158.863 30.9259C158.863 34.0493 162.391 34.0493 162.391 34.0493C164.539 34.0493 166.349 32.9163 166.779 31.5077C167.055 34.0799 169.601 34.0493 169.601 34.0493C171.381 34.0493 172.608 32.8857 172.823 31.9364L172.363 31.7527Z" fill="white" fill-opacity="0.8"/>
<path d="M183.924 27.19C183.924 31.967 182.42 33.59 180.273 33.59C178.524 33.59 176.836 32.4264 176.622 29.4866V23.8216C176.806 21.8618 178.002 20.3919 179.935 20.3919C182.512 20.3919 183.924 22.2905 183.924 27.19ZM187.697 26.8225C187.697 22.2905 184.997 19.3508 181.224 19.3508C179.72 19.3508 177.573 20.0551 176.622 21.7699V19.3508L171.835 20.3919V20.8512C173.093 21.1881 173.369 21.4637 173.369 22.5354V38.7957C173.369 40.3575 173.308 41.0924 172.142 41.4292V41.8886H177.879V41.4292C176.775 41.1536 176.622 40.4799 176.622 38.7957V33.0082C177.573 33.6512 178.861 34.0493 180.334 34.0493C184.537 34.0493 187.697 31.6608 187.697 26.8225Z" fill="white" fill-opacity="0.8"/>
<path d="M198.254 32.457C199.758 30.3134 198.868 27.7412 196.107 26.0264L193.008 24.0972C190.339 22.413 190.891 19.8101 193.346 19.8101C196.69 19.8101 197.61 22.4436 197.917 23.8828H198.377V20.3C198.377 20.3 196.874 19.3508 193.346 19.3508C190.247 19.3508 189.204 21.0043 189.204 21.0043C187.731 23.1479 188.467 25.2914 191.443 27.19L194.542 29.0579C196.874 30.589 196.874 33.59 194.174 33.59C190.37 33.59 189.511 30.3441 189.173 28.7211H188.713V32.7326C188.713 32.7326 190.462 34.0493 194.174 34.0493C197.15 34.0493 198.254 32.457 198.254 32.457Z" fill="white" fill-opacity="0.8"/>
</svg>
