<svg width="122" height="36" viewBox="0 0 122 36" fill="none" xmlns="http://www.w3.org/2000/svg">
<g clip-path="url(#clip0_291_218)">
<path d="M120.766 31.7791C120.766 33.6696 119.234 35.2 117.341 35.2H4.23716C2.34459 35.2 0.8125 33.6696 0.8125 31.7791V4.23149C0.8125 2.34097 2.34459 0.810547 4.23716 0.810547H117.341C119.234 0.810547 120.766 2.34097 120.766 4.23149V31.7791Z" fill="white"/>
<path d="M117.34 36.0099H4.23577C1.89258 36.0099 0 34.1194 0 31.7787V4.23116C0 1.89052 1.89258 0 4.23577 0H117.34C119.683 0 121.576 1.89052 121.576 4.23116V31.6887C121.576 34.1194 119.683 36.0099 117.34 36.0099Z" fill="#A6A6A6"/>
<path d="M120.766 31.7791C120.766 33.6696 119.234 35.2 117.341 35.2H4.23716C2.34459 35.2 0.8125 33.6696 0.8125 31.7791V4.23149C0.8125 2.34097 2.34459 0.810547 4.23716 0.810547H117.341C119.234 0.810547 120.766 2.34097 120.766 4.23149V31.7791Z" fill="black"/>
<path d="M27.1271 17.8244C27.1271 14.9436 29.4703 13.5032 29.6505 13.4132C28.2987 11.4327 26.1357 11.1626 25.4147 11.1626C23.6123 10.9825 21.9 12.2429 20.9987 12.2429C20.0975 12.2429 18.6555 11.1626 17.2136 11.2526C15.321 11.2526 13.5185 12.4229 12.5272 14.1334C10.4544 17.6444 11.9865 22.8658 13.9692 25.7466C14.9605 27.187 16.1321 28.7174 17.5741 28.6274C19.016 28.5374 19.5568 27.7271 21.3592 27.7271C23.0715 27.7271 23.6123 28.6274 25.1444 28.6274C26.6765 28.6274 27.6678 27.187 28.6592 25.8366C29.8308 24.2162 30.2814 22.6858 30.2814 22.5957C30.1912 22.4157 27.2172 21.2454 27.1271 17.8244ZM24.2431 9.27207C25.0542 8.2818 25.595 6.93143 25.4147 5.58105C24.2431 5.67108 22.8913 6.39128 21.9901 7.29153C21.2691 8.10175 20.6382 9.54214 20.8185 10.8025C22.1703 10.9825 23.432 10.2623 24.2431 9.27207Z" fill="white"/>
<path d="M117.34 0H56.7773L80.4796 36.0099H117.34C119.683 36.0099 121.576 34.1194 121.576 31.7787V4.23116C121.576 1.89052 119.683 0 117.34 0Z" fill="url(#paint0_linear_291_218)"/>
<path d="M48.3945 28.3582H46.3217L45.2402 24.8473H41.365L40.2835 28.3582H38.3008L42.1761 16.3849H44.5192L48.3945 28.3582ZM44.8797 23.4069L43.8884 20.256C43.7983 19.8959 43.618 19.1757 43.2575 18.0054C43.1674 18.5455 42.9872 19.2657 42.7168 20.256L41.6353 23.4069H44.8797ZM58.308 23.947C58.308 25.3874 57.9475 26.5577 57.1364 27.458C56.4154 28.1782 55.5142 28.6283 54.4327 28.6283C53.2612 28.6283 52.45 28.1782 51.9994 27.368V31.8692H50.1069V22.5967C50.1069 21.6964 50.1069 20.7061 50.0167 19.7159H51.7291L51.8192 21.0662C52.45 20.076 53.4414 19.5358 54.7031 19.5358C55.6945 19.5358 56.5957 19.8959 57.2266 20.7061C57.9475 21.5164 58.308 22.5967 58.308 23.947ZM56.3253 24.0371C56.3253 23.2268 56.1451 22.5066 55.7846 21.9665C55.334 21.4263 54.7932 21.1563 54.0723 21.1563C53.6216 21.1563 53.171 21.3363 52.8105 21.6064C52.45 21.9665 52.1797 22.3266 52.0896 22.8667C51.9994 23.0468 51.9994 23.2268 51.9994 23.4069V24.8473C51.9994 25.4774 52.1797 26.0176 52.5402 26.4677C52.9007 26.9178 53.4414 27.0979 54.0723 27.0979C54.7932 27.0979 55.334 26.8278 55.7846 26.2877C56.1451 25.6575 56.3253 24.9373 56.3253 24.0371ZM68.2215 23.947C68.2215 25.3874 67.861 26.5577 67.0499 27.458C66.3289 28.1782 65.4277 28.6283 64.3462 28.6283C63.1747 28.6283 62.3635 28.1782 61.9129 27.368V31.8692H60.0204V22.5967C60.0204 21.6964 60.0204 20.7061 59.9302 19.7159H61.6426L61.7327 21.0662C62.3635 20.076 63.3549 19.5358 64.6166 19.5358C65.608 19.5358 66.5092 19.8959 67.1401 20.7061C67.861 21.5164 68.2215 22.5967 68.2215 23.947ZM66.2388 24.0371C66.2388 23.2268 66.0586 22.5066 65.6981 21.9665C65.2475 21.4263 64.7067 21.1563 63.9858 21.1563C63.5351 21.1563 63.0845 21.3363 62.724 21.6064C62.3635 21.9665 62.0932 22.3266 62.0031 22.8667C61.9129 23.1368 61.9129 23.3169 61.9129 23.4069V24.8473C61.9129 25.4774 62.0932 26.0176 62.4537 26.4677C62.8142 26.9178 63.3549 27.0979 63.9858 27.0979C64.7067 27.0979 65.2475 26.8278 65.6981 26.2877C66.0586 25.6575 66.2388 24.9373 66.2388 24.0371ZM79.3066 25.0273C79.3066 26.0176 78.9461 26.9178 78.2251 27.548C77.414 28.2682 76.3326 28.6283 74.9807 28.6283C73.719 28.6283 72.6375 28.3582 71.9166 27.9081L72.3672 26.2877C73.1783 26.8278 74.1696 27.0079 75.161 27.0079C75.882 27.0079 76.4227 26.8278 76.8733 26.5577C77.2338 26.1976 77.5042 25.8375 77.5042 25.2074C77.5042 24.7572 77.3239 24.3071 76.9634 23.947C76.6029 23.5869 76.0622 23.3169 75.3412 23.0468C73.2684 22.2366 72.1869 21.1563 72.1869 19.6258C72.1869 18.6356 72.5474 17.8253 73.2684 17.1952C73.9894 16.565 74.9807 16.2949 76.2424 16.2949C77.3239 16.2949 78.2251 16.475 78.9461 16.8351L78.4054 18.3655C77.6844 18.0054 76.9634 17.8253 76.0622 17.8253C75.3412 17.8253 74.8906 18.0054 74.44 18.3655C74.0795 18.6356 73.9894 18.9957 73.9894 19.4458C73.9894 19.8959 74.1696 20.346 74.5301 20.6161C74.8906 20.8862 75.4313 21.2463 76.2424 21.5164C77.2338 21.9665 78.0449 22.4166 78.4955 22.9568C79.1264 23.4969 79.3066 24.2171 79.3066 25.0273ZM85.7053 21.1563H83.6325V25.3874C83.6325 26.4677 83.993 27.0079 84.714 27.0079C85.0745 27.0079 85.3448 27.0079 85.5251 26.9178L85.6152 28.3582C85.2547 28.5383 84.714 28.5383 84.0831 28.5383C83.3621 28.5383 82.7313 28.2682 82.2807 27.8181C81.8301 27.368 81.6498 26.5577 81.6498 25.4774V21.1563H80.3881V19.7159H81.6498V18.0954L83.5424 17.5553V19.7159H85.6152L85.7053 21.1563ZM95.2583 23.947C95.2583 25.2974 94.8979 26.3777 94.0867 27.1879C93.2756 28.0882 92.1942 28.5383 90.9324 28.5383C89.6707 28.5383 88.6794 28.0882 87.8683 27.2779C87.1473 26.4677 86.6967 25.3874 86.6967 24.1271C86.6967 22.7767 87.0572 21.6964 87.8683 20.7962C88.6794 19.9859 89.6707 19.5358 91.0226 19.5358C92.2843 19.5358 93.2756 19.9859 94.0867 20.7962C94.8979 21.6064 95.2583 22.6867 95.2583 23.947ZM93.2756 24.0371C93.2756 23.2268 93.0954 22.5967 92.7349 21.9665C92.3744 21.2463 91.7436 20.9762 91.0226 20.9762C90.2115 20.9762 89.6707 21.3363 89.2201 21.9665C88.8596 22.5066 88.6794 23.2268 88.6794 24.0371C88.6794 24.8473 88.8596 25.4774 89.2201 26.1076C89.6707 26.8278 90.2115 27.0979 90.9324 27.0979C91.6534 27.0979 92.2843 26.7378 92.6448 26.0176C93.0954 25.4774 93.2756 24.8473 93.2756 24.0371ZM101.477 21.4263C101.297 21.4263 101.116 21.3363 100.846 21.3363C100.125 21.3363 99.6744 21.6064 99.3139 22.1465C98.9534 22.5967 98.8632 23.1368 98.8632 23.857V28.3582H96.9707V22.4166C96.9707 21.5164 96.9707 20.6161 96.8805 19.7159H98.5929L98.683 21.3363H98.7731C98.9534 20.7962 99.3139 20.346 99.7645 19.9859C100.125 19.7159 100.666 19.5358 101.116 19.5358C101.297 19.5358 101.477 19.5358 101.567 19.5358L101.477 21.4263ZM110.129 23.677C110.129 23.947 110.129 24.2171 110.038 24.5772H104.271C104.271 25.3874 104.541 26.1076 105.082 26.5577C105.532 26.9178 106.163 27.1879 106.974 27.1879C107.785 27.1879 108.597 27.0979 109.317 26.7378L109.588 28.0882C108.777 28.4483 107.785 28.6283 106.704 28.6283C105.352 28.6283 104.271 28.2682 103.55 27.458C102.829 26.6478 102.378 25.5675 102.378 24.3071C102.378 23.0468 102.739 21.8765 103.46 21.0662C104.18 20.166 105.172 19.7159 106.524 19.7159C107.785 19.7159 108.687 20.166 109.317 21.0662C109.858 21.6064 110.129 22.5967 110.129 23.677ZM108.236 23.1368C108.236 22.5967 108.146 22.0565 107.876 21.6964C107.515 21.1563 107.064 20.8862 106.343 20.8862C105.713 20.8862 105.172 21.1563 104.811 21.6964C104.451 22.1465 104.271 22.5967 104.271 23.2268L108.236 23.1368Z" fill="white"/>
<path d="M40.7347 12.1531C40.1939 12.1531 39.7433 12.1531 39.3828 12.0631V6.30151C39.9235 6.21148 40.4643 6.21148 41.005 6.21148C43.168 6.21148 44.2494 7.29178 44.2494 9.09227C44.2494 11.0728 42.9877 12.1531 40.7347 12.1531ZM41.0951 6.93168C40.8248 6.93168 40.5544 6.93168 40.3742 7.0217V11.4329C40.4643 11.4329 40.7347 11.4329 41.005 11.4329C42.447 11.4329 43.2581 10.6227 43.2581 9.09227C43.168 7.65188 42.447 6.93168 41.0951 6.93168ZM47.4037 12.1531C46.142 12.1531 45.3309 11.2529 45.3309 9.99252C45.3309 8.64215 46.142 7.7419 47.4037 7.7419C48.6655 7.7419 49.4766 8.64215 49.4766 9.90249C49.4766 11.2529 48.6655 12.1531 47.4037 12.1531ZM47.4037 8.4621C46.6828 8.4621 46.3223 9.09227 46.3223 9.99252C46.3223 10.8928 46.7729 11.5229 47.4037 11.5229C48.0346 11.5229 48.4852 10.8027 48.4852 9.99252C48.4852 9.09227 48.0346 8.4621 47.4037 8.4621ZM56.5963 7.83193L55.2444 12.0631H54.3432L53.8024 10.2626C53.6222 9.81247 53.5321 9.36235 53.442 8.91222C53.3518 9.36235 53.2617 9.81247 53.0815 10.2626L52.4506 12.0631H51.5494L50.2877 7.83193H51.3691L51.8197 9.81247C51.9099 10.2626 52 10.7127 52.0901 11.1628C52.1802 10.8027 52.2704 10.3526 52.4506 9.81247L53.0815 7.7419H53.8926L54.4333 9.72245C54.6136 10.1726 54.7037 10.7127 54.7938 11.1628C54.8839 10.7127 54.974 10.2626 55.0642 9.72245L55.6049 7.7419L56.5963 7.83193ZM61.4629 12.0631H60.5617V9.63242C60.5617 8.91222 60.2913 8.4621 59.6604 8.4621C59.1197 8.4621 58.7592 8.91222 58.7592 9.5424V12.0631H57.858V9.00225C57.858 8.64215 57.858 8.19202 57.858 7.83193H58.579V8.4621C58.8493 8.01198 59.3901 7.7419 59.9308 7.7419C60.832 7.7419 61.3728 8.4621 61.3728 9.5424L61.4629 12.0631ZM64.0764 12.0631H63.1752V5.94141H64.0764V12.0631ZM67.5011 12.1531C66.2394 12.1531 65.4283 11.2529 65.4283 9.99252C65.4283 8.64215 66.2394 7.7419 67.5011 7.7419C68.7628 7.7419 69.5739 8.64215 69.5739 9.90249C69.664 11.2529 68.7628 12.1531 67.5011 12.1531ZM67.5912 8.4621C66.8702 8.4621 66.5098 9.09227 66.5098 9.99252C66.5098 10.8928 66.9604 11.5229 67.5912 11.5229C68.2221 11.5229 68.6727 10.8027 68.6727 9.99252C68.6727 9.09227 68.2221 8.4621 67.5912 8.4621ZM73.3591 12.0631L73.269 11.613C72.9986 11.9731 72.548 12.1531 72.0072 12.1531C71.2863 12.1531 70.7455 11.613 70.7455 10.8928C70.7455 9.81247 71.6468 9.27232 73.269 9.27232V9.1823C73.269 8.64215 72.9986 8.37207 72.3677 8.37207C71.9171 8.37207 71.5566 8.4621 71.2863 8.73217L71.0159 8.102C71.3764 7.83193 71.9171 7.7419 72.4579 7.7419C73.5393 7.7419 74.1702 8.28205 74.1702 9.5424V11.0728C74.1702 11.5229 74.1702 11.793 74.2603 12.0631H73.3591ZM73.1788 9.99252C72.0974 9.99252 71.6467 10.2626 71.6467 10.8928C71.6467 11.3429 71.9171 11.5229 72.2776 11.5229C72.7282 11.5229 73.1788 11.1628 73.1788 10.6227V9.99252ZM78.7664 12.0631V11.3429C78.4961 11.883 78.0455 12.1531 77.4146 12.1531C76.4233 12.1531 75.6122 11.2529 75.6122 9.99252C75.6122 8.64215 76.4233 7.7419 77.5047 7.7419C78.0455 7.7419 78.4961 7.92195 78.6763 8.28205V5.94141H79.5776V10.9828C79.5776 11.4329 79.5776 11.793 79.5776 12.1531L78.7664 12.0631ZM78.5862 9.63242C78.5862 9.00225 78.2257 8.55212 77.5948 8.55212C76.8739 8.55212 76.4233 9.1823 76.4233 10.0825C76.4233 10.9828 76.8739 11.5229 77.5047 11.5229C78.1356 11.5229 78.4961 10.9828 78.4961 10.3526L78.5862 9.63242ZM85.5257 12.1531C84.2639 12.1531 83.4528 11.2529 83.4528 9.99252C83.4528 8.64215 84.2639 7.7419 85.5257 7.7419C86.7874 7.7419 87.5985 8.64215 87.5985 9.90249C87.6886 11.2529 86.7874 12.1531 85.5257 12.1531ZM85.5257 8.4621C84.8047 8.4621 84.4442 9.09227 84.4442 9.99252C84.4442 10.8928 84.8948 11.5229 85.5257 11.5229C86.1565 11.5229 86.6071 10.8027 86.6071 9.99252C86.6972 9.09227 86.2466 8.4621 85.5257 8.4621ZM92.7355 12.0631H91.8342V9.63242C91.8342 8.91222 91.5639 8.4621 90.933 8.4621C90.3923 8.4621 90.0318 8.91222 90.0318 9.5424V12.0631H89.1306V9.00225C89.1306 8.64215 89.1306 8.19202 89.1306 7.83193H89.9417V8.4621C90.212 8.01198 90.7528 7.7419 91.2935 7.7419C92.1947 7.7419 92.7355 8.4621 92.7355 9.5424V12.0631ZM99.0441 8.55212H97.9626V10.6227C97.9626 11.1628 98.1428 11.4329 98.5033 11.4329C98.6836 11.4329 98.7737 11.4329 98.9539 11.4329V12.1531C98.7737 12.2431 98.5033 12.2431 98.233 12.2431C97.512 12.2431 97.0614 11.793 97.0614 10.8027V8.55212H96.4305V7.83193H97.0614V7.11173L97.9626 6.84165V7.92195H99.0441V8.55212ZM104.091 12.0631H103.19V9.63242C103.19 8.91222 102.919 8.4621 102.288 8.4621C101.838 8.4621 101.387 8.8222 101.387 9.45237V11.9731H100.486V5.94141H101.387V8.4621C101.658 8.01198 102.108 7.7419 102.649 7.7419C103.55 7.7419 104.091 8.4621 104.091 9.5424V12.0631ZM109.228 10.1726H106.344C106.344 10.9828 106.885 11.4329 107.696 11.4329C108.146 11.4329 108.507 11.3429 108.867 11.2529L109.048 11.883C108.687 12.0631 108.146 12.1531 107.606 12.1531C106.254 12.1531 105.533 11.3429 105.533 9.99252C105.533 8.73217 106.344 7.7419 107.516 7.7419C108.597 7.7419 109.318 8.55212 109.318 9.72245C109.228 9.9025 109.228 10.0825 109.228 10.1726ZM108.327 9.5424C108.327 8.91222 107.966 8.4621 107.425 8.4621C106.885 8.4621 106.434 8.91222 106.434 9.5424H108.327Z" fill="white"/>
</g>
<defs>
<linearGradient id="paint0_linear_291_218" x1="89.1866" y1="36.0962" x2="89.1866" y2="-483.38" gradientUnits="userSpaceOnUse">
<stop stop-color="#1A1A1A" stop-opacity="0.1"/>
<stop offset="0.123" stop-color="#212121" stop-opacity="0.151"/>
<stop offset="0.308" stop-color="#353535" stop-opacity="0.227"/>
<stop offset="0.532" stop-color="#575757" stop-opacity="0.318"/>
<stop offset="0.783" stop-color="#858585" stop-opacity="0.421"/>
<stop offset="1" stop-color="#B3B3B3" stop-opacity="0.51"/>
</linearGradient>
<clipPath id="clip0_291_218">
<rect width="121.6" height="36" fill="white"/>
</clipPath>
</defs>
</svg>
