<svg width="123" height="36" viewBox="0 0 123 36" fill="none" xmlns="http://www.w3.org/2000/svg">
<g clip-path="url(#clip0_291_228)">
<path fill-rule="evenodd" clip-rule="evenodd" d="M118.136 36H5.12386C2.63143 36 0.601562 33.9711 0.601562 31.5V4.5C0.601562 2.01995 2.63143 0 5.12386 0H118.136C120.627 0 122.659 2.01995 122.659 4.5V31.5C122.659 33.9711 120.627 36 118.136 36Z" fill="black"/>
<path fill-rule="evenodd" clip-rule="evenodd" d="M118.136 0.720449C120.227 0.720449 121.938 2.41945 121.938 4.5V31.5C121.938 33.5805 120.238 35.2796 118.136 35.2796H5.12386C3.03336 35.2796 1.32235 33.5805 1.32235 31.5V4.5C1.32235 2.41945 3.02214 0.720449 5.12386 0.720449H118.136ZM118.136 0H5.12386C2.63143 0 0.601562 2.02893 0.601562 4.5V31.5C0.601562 33.98 2.63143 36 5.12386 36H118.136C120.627 36 122.659 33.98 122.659 31.5V4.5C122.659 2.02893 120.627 0 118.136 0Z" fill="#A6A6A6"/>
<path d="M64.904 11.9086C64.0889 11.9086 63.4018 11.6235 62.8584 11.0624C62.3195 10.517 62.0186 9.76518 62.0321 8.9976C62.0321 8.17839 62.3105 7.48488 62.8584 6.935C63.3996 6.3739 64.0867 6.08887 64.9018 6.08887C65.7079 6.08887 66.395 6.3739 66.9473 6.935C67.4952 7.50283 67.7737 8.19635 67.7737 8.9976C67.7647 9.81904 67.4862 10.5126 66.9473 11.0602C66.4062 11.6258 65.7191 11.9086 64.904 11.9086ZM40.6511 11.9086C39.854 11.9086 39.1624 11.628 38.5965 11.0737C38.0352 10.5215 37.75 9.82353 37.75 8.99984C37.75 8.17615 38.0352 7.47814 38.5965 6.92602C39.1511 6.37166 39.8427 6.09111 40.6511 6.09111C41.0463 6.09111 41.4303 6.16967 41.7985 6.32902C42.16 6.48388 42.4542 6.69485 42.672 6.95296L42.7259 7.01804L42.1174 7.61505L42.0545 7.54099C41.7109 7.13251 41.2506 6.93276 40.6421 6.93276C40.0987 6.93276 39.6249 7.12578 39.2342 7.50732C38.8413 7.89111 38.6414 8.39386 38.6414 9.00208C38.6414 9.61031 38.8413 10.1131 39.2342 10.4968C39.6249 10.8784 40.0987 11.0714 40.6421 11.0714C41.2214 11.0714 41.7087 10.8784 42.0882 10.4968C42.3127 10.2724 42.4519 9.95819 42.5013 9.56094H40.5501V8.72154H43.3389L43.3501 8.79785C43.3703 8.93924 43.3905 9.08513 43.3905 9.21979C43.3905 9.9941 43.157 10.6203 42.6944 11.0826C42.169 11.6303 41.4819 11.9086 40.6511 11.9086ZM72.8977 11.7896H72.0377L69.4038 7.5769L69.4263 8.3355V11.7874H68.5663V6.21006H69.5475L69.5745 6.25271L72.0512 10.2208L72.0287 9.46443V6.21006H72.8977V11.7896ZM58.4416 11.7896H57.5704V7.04947H56.0592V6.21006H59.9506V7.04947H58.4394V11.7896H58.4416ZM55.3497 11.7896H54.4807V6.21006H55.3497V11.7896ZM50.4659 11.7896H49.5969V7.04947H48.0857V6.21006H51.977V7.04947H50.4659V11.7896ZM47.5356 11.7806H44.2034V6.21006H47.5356V7.04947H45.0746V8.58014H47.2953V9.41056H45.0746V10.9412H47.5356V11.7806ZM63.4961 10.4856C63.8846 10.8739 64.3561 11.0692 64.904 11.0692C65.4676 11.0692 65.9279 10.8784 66.3119 10.4856C66.6936 10.1041 66.8867 9.60358 66.8867 8.99984C66.8867 8.3961 66.6936 7.89336 66.3141 7.51405C65.9257 7.12577 65.4519 6.93051 64.9062 6.93051C64.3426 6.93051 63.8823 7.12129 63.5006 7.51405C63.1189 7.8956 62.9258 8.3961 62.9258 8.99984C62.9258 9.60358 63.1166 10.1063 63.4961 10.4856Z" fill="white"/>
<path fill-rule="evenodd" clip-rule="evenodd" d="M61.95 19.58C59.8281 19.58 58.1081 21.1892 58.1081 23.4089C58.1081 25.6084 59.8393 27.2378 61.95 27.2378C64.072 27.2378 65.792 25.6174 65.792 23.4089C65.792 21.1892 64.072 19.58 61.95 19.58ZM61.95 25.7206C60.7892 25.7206 59.7899 24.76 59.7899 23.3999C59.7899 22.0196 60.7914 21.0792 61.95 21.0792C63.1109 21.0792 64.1101 22.0196 64.1101 23.3999C64.1124 24.769 63.1109 25.7206 61.95 25.7206ZM53.5678 19.58C51.4459 19.58 49.7259 21.1892 49.7259 23.4089C49.7259 25.6084 51.4571 27.2378 53.5678 27.2378C55.6898 27.2378 57.4098 25.6174 57.4098 23.4089C57.4098 21.1892 55.6875 19.58 53.5678 19.58ZM53.5678 25.7206C52.407 25.7206 51.4077 24.76 51.4077 23.3999C51.4077 22.0196 52.4092 21.0792 53.5678 21.0792C54.7287 21.0792 55.7279 22.0196 55.7279 23.3999C55.7279 24.769 54.7287 25.7206 53.5678 25.7206ZM43.5936 20.7493V22.3698H47.485C47.366 23.2787 47.0651 23.9498 46.6048 24.4099C46.0344 24.98 45.1542 25.5994 43.6026 25.5994C41.2112 25.5994 39.3408 23.6693 39.3408 21.279C39.3408 18.8887 41.2112 16.9585 43.6026 16.9585C44.8937 16.9585 45.8346 17.468 46.5329 18.1189L47.6826 16.9697C46.7125 16.0406 45.4214 15.3291 43.6116 15.3291C40.331 15.3291 37.5781 17.9999 37.5781 21.27C37.5781 24.5491 40.3288 27.2109 43.6116 27.2109C45.3832 27.2109 46.7125 26.6318 47.7634 25.5411C48.8345 24.4705 49.1735 22.96 49.1735 21.7413C49.1735 21.362 49.1443 21.0209 49.0837 20.7313H43.5914C43.5936 20.7291 43.5936 20.7493 43.5936 20.7493ZM84.3909 22.0106C84.0698 21.151 83.0998 19.571 81.1103 19.571C79.1388 19.571 77.4996 21.1219 77.4996 23.3999C77.4996 25.55 79.1208 27.2289 81.3012 27.2289C83.0526 27.2289 84.072 26.1583 84.4919 25.5299L83.1918 24.659C82.7607 25.2987 82.1612 25.7184 81.3101 25.7184C80.4501 25.7184 79.8484 25.3279 79.4487 24.558L84.5705 22.4371C84.5705 22.4393 84.3909 22.0106 84.3909 22.0106ZM79.168 23.2899C79.1276 21.8109 80.3177 21.059 81.1687 21.059C81.8401 21.059 82.3992 21.389 82.59 21.8693L79.168 23.2899ZM75.0072 26.9999H76.689V15.751H75.0072V26.9999ZM72.2453 20.4306H72.1847C71.8052 19.9795 71.0844 19.571 70.1638 19.571C68.253 19.571 66.4925 21.252 66.4925 23.4111C66.4925 25.5613 68.244 27.2221 70.1638 27.2221C71.0732 27.2221 71.8052 26.8114 72.1847 26.3513H72.2453V26.9012C72.2453 28.3623 71.4639 29.1501 70.2042 29.1501C69.1736 29.1501 68.5336 28.4094 68.2732 27.7899L66.8114 28.4004C67.2313 29.4104 68.3518 30.6605 70.202 30.6605C72.1735 30.6605 73.8441 29.5002 73.8441 26.67V19.7999H72.2543V20.4306C72.2566 20.4306 72.2453 20.4306 72.2453 20.4306ZM70.3143 25.7206C69.1534 25.7206 68.1834 24.751 68.1834 23.4111C68.1834 22.06 69.1534 21.0815 70.3143 21.0815C71.4639 21.0815 72.3554 22.0712 72.3554 23.4111C72.3666 24.751 71.4662 25.7206 70.3143 25.7206ZM92.2656 15.751H88.244V26.9999H89.9259V22.7401H92.2678C94.1293 22.7401 95.9593 21.3912 95.9593 19.25C95.9593 17.1089 94.136 15.751 92.2656 15.751ZM92.315 21.169H89.9236V17.3087H92.315C93.5747 17.3087 94.2865 18.3478 94.2865 19.2388C94.2865 20.1209 93.5657 21.169 92.315 21.169ZM102.7 19.5598C101.479 19.5598 100.219 20.1007 99.698 21.279L101.189 21.8984C101.51 21.279 102.098 21.068 102.72 21.068C103.592 21.068 104.472 21.5887 104.492 22.5179V22.6368C104.191 22.4663 103.531 22.2059 102.741 22.2059C101.131 22.2059 99.4981 23.0857 99.4981 24.7353C99.4981 26.2458 100.818 27.2154 102.289 27.2154C103.419 27.2154 104.041 26.7059 104.429 26.1156H104.49V26.9865H106.111V22.6772C106.111 20.6707 104.62 19.5598 102.7 19.5598ZM102.489 25.7206C101.939 25.7206 101.169 25.4513 101.169 24.76C101.169 23.8892 102.13 23.5593 102.949 23.5593C103.69 23.5593 104.041 23.7186 104.481 23.9386C104.359 24.9486 103.506 25.7116 102.489 25.7206ZM112.025 19.7999L110.094 24.6792H110.034L108.033 19.7999H106.223L109.225 26.6206L107.514 30.4114H109.266L113.885 19.7999H112.025ZM96.8867 26.9999H98.5685V15.751H96.8867V26.9999Z" fill="white"/>
<path fill-rule="evenodd" clip-rule="evenodd" d="M9.99685 6.78033C9.73638 7.06087 9.58594 7.48955 9.58594 8.05065V27.9516C9.58594 28.5127 9.73638 28.9414 10.0058 29.2107L10.0754 29.2713L21.2307 18.1212V17.8721L10.0665 6.71973L9.99685 6.78033Z" fill="url(#paint0_linear_291_228)"/>
<path fill-rule="evenodd" clip-rule="evenodd" d="M24.9394 21.8486L21.2188 18.1297V17.8693L24.9394 14.1504L25.0203 14.1998L29.4213 16.7C30.681 17.4092 30.681 18.5808 29.4213 19.299L25.0203 21.7993L24.9394 21.8486Z" fill="url(#paint1_linear_291_228)"/>
<path fill-rule="evenodd" clip-rule="evenodd" d="M25.0225 21.7997L21.221 18L9.99609 29.2197C10.407 29.6596 11.0964 29.709 11.8665 29.2803L25.0225 21.7997Z" fill="url(#paint2_linear_291_228)"/>
<path fill-rule="evenodd" clip-rule="evenodd" d="M25.0225 14.2002L11.8665 6.73087C11.0964 6.29097 10.4048 6.35157 9.99609 6.79147L21.221 17.9999L25.0225 14.2002Z" fill="url(#paint3_linear_291_228)"/>
<path opacity="0.2" fill-rule="evenodd" clip-rule="evenodd" d="M24.9444 21.7188L11.8783 29.1387C11.1485 29.5584 10.4973 29.5292 10.0774 29.1477L10.0078 29.2173L10.0774 29.2779C10.4973 29.6572 11.1485 29.6886 11.8783 29.2689L25.0342 21.7995L24.9444 21.7188Z" fill="black"/>
<path opacity="0.12" fill-rule="evenodd" clip-rule="evenodd" d="M29.4228 19.1693L24.9297 21.719L25.0105 21.7998L29.4116 19.2995C30.0425 18.9404 30.3524 18.4691 30.3524 18C30.3142 18.4309 29.9931 18.8394 29.4228 19.1693Z" fill="black"/>
<path opacity="0.25" fill-rule="evenodd" clip-rule="evenodd" d="M11.8673 6.86106L29.4243 16.8306C29.9947 17.1516 30.3158 17.5713 30.3652 18C30.3652 17.5309 30.0553 17.0596 29.4243 16.7005L11.8673 6.73089C10.6076 6.01044 9.58594 6.61194 9.58594 8.05059V8.18076C9.58594 6.73987 10.6076 6.14959 11.8673 6.86106Z" fill="white"/>
</g>
<defs>
<linearGradient id="paint0_linear_291_228" x1="20.2301" y1="7.83594" x2="2.36236" y2="12.599" gradientUnits="userSpaceOnUse">
<stop stop-color="#00A0FF"/>
<stop offset="0.00657" stop-color="#00A1FF"/>
<stop offset="0.2601" stop-color="#00BEFF"/>
<stop offset="0.5122" stop-color="#00D2FF"/>
<stop offset="0.7604" stop-color="#00DFFF"/>
<stop offset="1" stop-color="#00E3FF"/>
</linearGradient>
<linearGradient id="paint1_linear_291_228" x1="31.0641" y1="17.9996" x2="9.27676" y2="17.9996" gradientUnits="userSpaceOnUse">
<stop stop-color="#FFE000"/>
<stop offset="0.4087" stop-color="#FFBD00"/>
<stop offset="0.7754" stop-color="#FFA500"/>
<stop offset="1" stop-color="#FF9C00"/>
</linearGradient>
<linearGradient id="paint2_linear_291_228" x1="22.9554" y1="20.0676" x2="8.62021" y2="44.2061" gradientUnits="userSpaceOnUse">
<stop stop-color="#FF3A44"/>
<stop offset="1" stop-color="#C31162"/>
</linearGradient>
<linearGradient id="paint3_linear_291_228" x1="7.16954" y1="0.160865" x2="13.565" y2="10.9415" gradientUnits="userSpaceOnUse">
<stop stop-color="#32A071"/>
<stop offset="0.0685" stop-color="#2DA771"/>
<stop offset="0.4762" stop-color="#15CF74"/>
<stop offset="0.8009" stop-color="#06E775"/>
<stop offset="1" stop-color="#00F076"/>
</linearGradient>
<clipPath id="clip0_291_228">
<rect width="122.057" height="36" fill="white" transform="translate(0.601562)"/>
</clipPath>
</defs>
</svg>
