<svg width="104" height="104" viewBox="0 0 104 104" fill="none" xmlns="http://www.w3.org/2000/svg">
<path d="M65.914 46.2363C87.8767 46.936 104 49.2515 104 52C104 54.7485 87.8767 57.064 65.914 57.7637C80.9494 73.788 90.713 86.8263 88.7694 88.7694C86.8263 90.713 73.788 80.9494 57.7637 65.9144C57.064 87.8767 54.7485 104 52 104C49.2515 104 46.936 87.8767 46.2363 65.914C30.2119 80.9494 17.1739 90.713 15.2305 88.7694C13.287 86.8263 23.0505 73.788 38.0855 57.7637C16.1231 57.064 0 54.7485 0 52C0 49.2515 16.1231 46.936 38.0855 46.2363C23.0505 30.2119 13.287 17.1739 15.2304 15.2305C17.1739 13.287 30.2119 23.0506 46.2363 38.0858C46.936 16.1231 49.2515 0 52 0C54.7485 0 57.064 16.1231 57.7637 38.0855C73.788 23.0505 86.8263 13.287 88.7694 15.2304C90.713 17.1739 80.9494 30.2119 65.914 46.2363Z" fill="#FFCA0E"/>
</svg>
