<svg width="86" height="104" viewBox="0 0 86 104" fill="none" xmlns="http://www.w3.org/2000/svg">
<path d="M47.914 46.2363C69.8767 46.936 86 49.2515 86 52C86 54.7485 69.8767 57.064 47.914 57.7637C62.9494 73.788 72.713 86.8263 70.7694 88.7694C68.8263 90.713 55.788 80.9494 39.7637 65.9144C39.064 87.8767 36.7485 104 34 104C31.2515 104 28.936 87.8767 28.2363 65.914C12.2119 80.9494 -0.826147 90.713 -2.76953 88.7694C-4.713 86.8263 5.05052 73.788 20.0855 57.7637C-1.87692 57.064 -18 54.7485 -18 52C-18 49.2515 -1.87692 46.936 20.0855 46.2363C5.05052 30.2119 -4.71304 17.1739 -2.76957 15.2305C-0.826147 13.287 12.2119 23.0506 28.2363 38.0858C28.936 16.1231 31.2515 0 34 0C36.7485 0 39.064 16.1231 39.7637 38.0855C55.788 23.0505 68.8263 13.287 70.7694 15.2304C72.713 17.1739 62.9494 30.2119 47.914 46.2363Z" fill="#FFCA0E"/>
</svg>
